ffmpeg version 4.2.4-1ubuntu0.1 Copyright (c) 2000-2020 the FFmpeg developers
  built with gcc 9 (Ubuntu 9.3.0-10ubuntu2)
  configuration: --prefix=/usr --extra-version=1ubuntu0.1 --toolchain=hardened --libdir=/usr/lib/x86_64-linux-gnu --incdir=/usr/include/x86_64-linux-gnu --arch=amd64 --enable-gpl --disable-stripping --enable-avresample --disable-filter=resample --enable-avisynth --enable-gnutls --enable-ladspa --enable-libaom --enable-libass --enable-libbluray --enable-libbs2b --enable-libcaca --enable-libcdio --enable-libcodec2 --enable-libflite --enable-libfontconfig --enable-libfreetype --enable-libfribidi --enable-libgme --enable-libgsm --enable-libjack --enable-libmp3lame --enable-libmysofa --enable-libopenjpeg --enable-libopenmpt --enable-libopus --enable-libpulse --enable-librsvg --enable-librubberband --enable-libshine --enable-libsnappy --enable-libsoxr --enable-libspeex --enable-libssh --enable-libtheora --enable-libtwolame --enable-libvidstab --enable-libvorbis --enable-libvpx --enable-libwavpack --enable-libwebp --enable-libx265 --enable-libxml2 --enable-libxvid --enable-libzmq --enable-libzvbi --enable-lv2 --enable-omx --enable-openal --enable-opencl --enable-opengl --enable-sdl2 --enable-libdc1394 --enable-libdrm --enable-libiec61883 --enable-nvenc --enable-chromaprint --enable-frei0r --enable-libx264 --enable-shared
  WARNING: library configuration mismatch
  avcodec     configuration: --prefix=/usr --extra-version=1ubuntu0.1 --toolchain=hardened --libdir=/usr/lib/x86_64-linux-gnu --incdir=/usr/include/x86_64-linux-gnu --arch=amd64 --enable-gpl --disable-stripping --enable-avresample --disable-filter=resample --enable-avisynth --enable-gnutls --enable-ladspa --enable-libaom --enable-libass --enable-libbluray --enable-libbs2b --enable-libcaca --enable-libcdio --enable-libcodec2 --enable-libflite --enable-libfontconfig --enable-libfreetype --enable-libfribidi --enable-libgme --enable-libgsm --enable-libjack --enable-libmp3lame --enable-libmysofa --enable-libopenjpeg --enable-libopenmpt --enable-libopus --enable-libpulse --enable-librsvg --enable-librubberband --enable-libshine --enable-libsnappy --enable-libsoxr --enable-libspeex --enable-libssh --enable-libtheora --enable-libtwolame --enable-libvidstab --enable-libvorbis --enable-libvpx --enable-libwavpack --enable-libwebp --enable-libx265 --enable-libxml2 --enable-libxvid --enable-libzmq --enable-libzvbi --enable-lv2 --enable-omx --enable-openal --enable-opencl --enable-opengl --enable-sdl2 --enable-libdc1394 --enable-libdrm --enable-libiec61883 --enable-nvenc --enable-chromaprint --enable-frei0r --enable-libx264 --enable-shared --enable-version3 --disable-doc --disable-programs --enable-libaribb24 --enable-liblensfun --enable-libopencore_amrnb --enable-libopencore_amrwb --enable-libtesseract --enable-libvo_amrwbenc
  libavutil      56. 31.100 / 56. 31.100
  libavcodec     58. 54.100 / 58. 54.100
  libavformat    58. 29.100 / 58. 29.100
  libavdevice    58.  8.100 / 58.  8.100
  libavfilter     7. 57.100 /  7. 57.100
  libavresample   4.  0.  0 /  4.  0.  0
  libswscale      5.  5.100 /  5.  5.100
  libswresample   3.  5.100 /  3.  5.100
  libpostproc    55.  5.100 / 55.  5.100
Input #0, image2pipe, from 'pipe:':
  Duration: N/A, bitrate: N/A
    Stream #0:0: Video: ppm, rgb24, 320x240, 20 fps, 20 tbr, 20 tbn, 20 tbc
Stream mapping:
  Stream #0:0 -> #0:0 (ppm (native) -> h264 (libx264))
[libx264 @ 0x55f284ec5f40] using cpu capabilities: MMX2 SSE2Fast SSSE3 SSE4.2 AVX FMA3 BMI2 AVX2
[libx264 @ 0x55f284ec5f40] profile High, level 1.3
[libx264 @ 0x55f284ec5f40] 264 - core 155 r2917 0a84d98 - H.264/MPEG-4 AVC codec - Copyleft 2003-2018 - http://www.videolan.org/x264.html - options: cabac=1 ref=3 deblock=1:0:0 analyse=0x3:0x113 me=hex subme=7 psy=1 psy_rd=1.00:0.00 mixed_ref=1 me_range=16 chroma_me=1 trellis=1 8x8dct=1 cqm=0 deadzone=21,11 fast_pskip=1 chroma_qp_offset=-2 threads=7 lookahead_threads=1 sliced_threads=0 nr=0 decimate=1 interlaced=0 bluray_compat=0 constrained_intra=0 bframes=3 b_pyramid=2 b_adapt=1 b_bias=0 direct=1 weightb=1 open_gop=0 weightp=2 keyint=250 keyint_min=20 scenecut=40 intra_refresh=0 rc_lookahead=40 rc=abr mbtree=1 bitrate=400 ratetol=1.0 qcomp=0.60 qpmin=0 qpmax=69 qpstep=4 ip_ratio=1.40 aq=1:1.00
Output #0, mp4, to './mission_records/e3021d0a-15c0-4f01-9e7b-c3c281df2a4a/video.mp4':
  Metadata:
    encoder         : Lavf58.29.100
    Stream #0:0: Video: h264 (libx264) (avc1 / 0x31637661), yuv420p, 320x240, q=-1--1, 400 kb/s, 20 fps, 10240 tbn, 20 tbc
    Metadata:
      encoder         : Lavc58.54.100 libx264
    Side data:
      cpb: bitrate max/min/avg: 0/0/400000 buffer size: 0 vbv_delay: -1
frame=   32 fps=0.0 q=0.0 size=       0kB time=00:00:00.00 bitrate=N/A speed=   0x    frame=   41 fps= 39 q=0.0 size=       0kB time=00:00:00.00 bitrate=N/A speed=   0x    frame=   50 fps= 32 q=0.0 size=       0kB time=00:00:00.00 bitrate=N/A speed=   0x    frame=   59 fps= 28 q=29.0 size=       0kB time=00:00:00.25 bitrate=   1.5kbits/s speed=0.12x    frame=   68 fps= 26 q=26.0 size=       0kB time=00:00:00.70 bitrate=   0.5kbits/s speed=0.268x    frame=   77 fps= 25 q=25.0 size=       0kB time=00:00:01.15 bitrate=   0.3kbits/s speed=0.368x    frame=   86 fps= 24 q=25.0 size=       0kB time=00:00:01.60 bitrate=   0.2kbits/s speed=0.441x    frame=   96 fps= 23 q=25.0 size=       0kB time=00:00:02.10 bitrate=   0.2kbits/s speed=0.504x    frame=  105 fps= 22 q=25.0 size=       0kB time=00:00:02.55 bitrate=   0.2kbits/s speed=0.546x    frame=  115 fps= 22 q=25.0 size=       0kB time=00:00:03.05 bitrate=   0.1kbits/s speed=0.586x    frame=  124 fps= 22 q=25.0 size=       0kB time=00:00:03.50 bitrate=   0.1kbits/s speed=0.609x    frame=  133 fps= 21 q=25.0 size=       0kB time=00:00:03.95 bitrate=   0.1kbits/s speed=0.631x    frame=  142 fps= 21 q=25.0 size=       0kB time=00:00:04.40 bitrate=   0.1kbits/s speed=0.649x    frame=  151 fps= 21 q=25.0 size=       0kB time=00:00:04.85 bitrate=   0.1kbits/s speed=0.664x    frame=  160 fps= 20 q=25.0 size=     256kB time=00:00:05.30 bitrate= 395.8kbits/s speed=0.678x    frame=  169 fps= 20 q=25.0 size=     256kB time=00:00:05.75 bitrate= 364.8kbits/s speed=0.692x    frame=  178 fps= 20 q=25.0 size=     256kB time=00:00:06.20 bitrate= 338.3kbits/s speed=0.703x    frame=  187 fps= 20 q=25.0 size=     256kB time=00:00:06.65 bitrate= 315.4kbits/s speed=0.714x    frame=  196 fps= 20 q=25.0 size=     256kB time=00:00:07.10 bitrate= 295.4kbits/s speed=0.722x    frame=  205 fps= 20 q=25.0 size=     256kB time=00:00:07.55 bitrate= 277.8kbits/s speed=0.729x    frame=  214 fps= 20 q=25.0 size=     256kB time=00:00:08.00 bitrate= 262.2kbits/s speed=0.733x    frame=  223 fps= 20 q=25.0 size=     256kB time=00:00:08.45 bitrate= 248.2kbits/s speed=0.74x    frame=  232 fps= 19 q=25.0 size=     256kB time=00:00:08.90 bitrate= 235.7kbits/s speed=0.744x    frame=  242 fps= 19 q=25.0 size=     256kB time=00:00:09.40 bitrate= 223.1kbits/s speed=0.751x    frame=  251 fps= 19 q=25.0 size=     256kB time=00:00:09.85 bitrate= 212.9kbits/s speed=0.756x    frame=  261 fps= 19 q=25.0 size=     256kB time=00:00:10.35 bitrate= 202.7kbits/s speed=0.763x    frame=  270 fps= 19 q=25.0 size=     512kB time=00:00:10.80 bitrate= 388.4kbits/s speed=0.767x    frame=  279 fps= 19 q=25.0 size=     512kB time=00:00:11.25 bitrate= 372.9kbits/s speed=0.769x    frame=  288 fps= 19 q=25.0 size=     512kB time=00:00:11.70 bitrate= 358.5kbits/s speed=0.773x    frame=  298 fps= 19 q=25.0 size=     512kB time=00:00:12.20 bitrate= 343.8kbits/s speed=0.778x    frame=  307 fps= 19 q=25.0 size=     512kB time=00:00:12.65 bitrate= 331.6kbits/s speed=0.782x    frame=  316 fps= 19 q=25.0 size=     512kB time=00:00:13.10 bitrate= 320.2kbits/s speed=0.785x    frame=  326 fps= 19 q=25.0 size=     512kB time=00:00:13.60 bitrate= 308.4kbits/s speed=0.789x    frame=  335 fps= 19 q=25.0 size=     512kB time=00:00:14.05 bitrate= 298.6kbits/s speed=0.791x    frame=  344 fps= 19 q=24.0 size=     512kB time=00:00:14.50 bitrate= 289.3kbits/s speed=0.792x    frame=  353 fps= 19 q=24.0 size=     512kB time=00:00:14.95 bitrate= 280.6kbits/s speed=0.795x    frame=  362 fps= 19 q=24.0 size=     512kB time=00:00:15.40 bitrate= 272.4kbits/s speed=0.797x    frame=  372 fps= 19 q=24.0 size=     512kB time=00:00:15.90 bitrate= 263.8kbits/s speed=0.801x    frame=  381 fps= 19 q=25.0 size=     768kB time=00:00:16.35 bitrate= 384.8kbits/s speed=0.803x    frame=  390 fps= 19 q=25.0 size=     768kB time=00:00:16.80 bitrate= 374.5kbits/s speed=0.805x    frame=  399 fps= 19 q=25.0 size=     768kB time=00:00:17.25 bitrate= 364.7kbits/s speed=0.806x    frame=  409 fps= 19 q=25.0 size=     768kB time=00:00:17.75 bitrate= 354.5kbits/s speed=0.809x    frame=  419 fps= 19 q=25.0 size=     768kB time=00:00:18.25 bitrate= 344.8kbits/s speed=0.812x    frame=  428 fps= 19 q=25.0 size=     768kB time=00:00:18.70 bitrate= 336.5kbits/s speed=0.813x    frame=  437 fps= 19 q=25.0 size=     768kB time=00:00:19.15 bitrate= 328.6kbits/s speed=0.814x    frame=  446 fps= 19 q=25.0 size=     768kB time=00:00:19.60 bitrate= 321.0kbits/s speed=0.815x    frame=  456 fps= 19 q=25.0 size=     768kB time=00:00:20.10 bitrate= 313.0kbits/s speed=0.817x    frame=  465 fps= 19 q=25.0 size=     768kB time=00:00:20.55 bitrate= 306.2kbits/s speed=0.819x    frame=  475 fps= 19 q=25.0 size=    1024kB time=00:00:21.05 bitrate= 398.5kbits/s speed=0.82x    frame=  484 fps= 18 q=25.0 size=    1024kB time=00:00:21.50 bitrate= 390.2kbits/s speed=0.82x    frame=  493 fps= 18 q=25.0 size=    1024kB time=00:00:21.95 bitrate= 382.2kbits/s speed=0.821x    frame=  502 fps= 18 q=26.0 size=    1024kB time=00:00:22.40 bitrate= 374.5kbits/s speed=0.822x    frame=  510 fps= 18 q=-1.0 Lsize=    1289kB time=00:00:25.35 bitrate= 416.5kbits/s speed=0.91x    
video:1282kB audio:0kB subtitle:0kB other streams:0kB global headers:0kB muxing overhead: 0.530315%
[libx264 @ 0x55f284ec5f40] frame I:3     Avg QP:18.69  size: 11469
[libx264 @ 0x55f284ec5f40] frame P:129   Avg QP:19.40  size:  5356
[libx264 @ 0x55f284ec5f40] frame B:378   Avg QP:22.12  size:  1552
[libx264 @ 0x55f284ec5f40] consecutive B-frames:  1.0%  0.4%  0.6% 98.0%
[libx264 @ 0x55f284ec5f40] mb I  I16..4: 17.3% 52.8% 29.9%
[libx264 @ 0x55f284ec5f40] mb P  I16..4:  4.3%  3.0%  1.4%  P16..4: 17.3% 31.9% 33.6%  0.0%  0.0%    skip: 8.6%
[libx264 @ 0x55f284ec5f40] mb B  I16..4:  0.1%  0.0%  0.0%  B16..8: 48.7% 17.3%  6.7%  direct: 4.7%  skip:22.4%  L0:44.7% L1:47.8% BI: 7.5%
[libx264 @ 0x55f284ec5f40] final ratefactor: 20.75
[libx264 @ 0x55f284ec5f40] 8x8 transform intra:37.4% inter:49.4%
[libx264 @ 0x55f284ec5f40] coded y,uvDC,uvAC intra: 49.2% 51.9% 33.7% inter: 23.5% 20.1% 3.3%
[libx264 @ 0x55f284ec5f40] i16 v,h,dc,p: 10% 47% 41%  1%
[libx264 @ 0x55f284ec5f40] i8 v,h,dc,ddl,ddr,vr,hd,vl,hu:  5% 24% 23%  5%  9%  6% 14%  4% 10%
[libx264 @ 0x55f284ec5f40] i4 v,h,dc,ddl,ddr,vr,hd,vl,hu: 13% 22% 19%  6%  9%  7% 10%  6%  8%
[libx264 @ 0x55f284ec5f40] i8c dc,h,v,p: 42% 47%  8%  2%
[libx264 @ 0x55f284ec5f40] Weighted P-Frames: Y:2.3% UV:0.8%
[libx264 @ 0x55f284ec5f40] ref P L0: 79.1%  5.8% 11.8%  3.3%  0.0%
[libx264 @ 0x55f284ec5f40] ref B L0: 91.9%  7.1%  1.0%
[libx264 @ 0x55f284ec5f40] ref B L1: 96.0%  4.0%
[libx264 @ 0x55f284ec5f40] kb/s:411.64
